<svg width="100" height="101" viewBox="0 0 100 101" fill="none" xmlns="http://www.w3.org/2000/svg">
<g filter="url(#filter0_f_358_279)">
<circle cx="50" cy="50.418" r="25" fill="#98BCD6"/>
</g>
<circle cx="50" cy="50.418" r="35" fill="#98BCD6"/>
<g clip-path="url(#clip0_358_279)">
<path d="M65.9597 31.3354C65.7806 30.9908 65.3558 30.8564 65.0116 31.0355C64.667 31.2146 64.5326 31.639 64.7116 31.9836C65.629 33.7495 65.8216 35.779 65.254 37.698C65.0277 38.4648 63.0395 45.1987 62.9527 45.533C62.9355 45.5997 62.8758 45.6465 62.8081 45.6465H46.2151C45.8266 45.6465 45.512 45.9611 45.512 46.3497C45.512 46.7378 45.8266 47.0528 46.2151 47.0528H60.6745L60.2838 49.2013C60.2706 49.2724 60.2091 49.3236 60.1369 49.3236H39.8775C39.8054 49.3236 39.7438 49.2724 39.731 49.2013L39.3399 47.0528H43.1532C43.5414 47.0528 43.8564 46.7378 43.8564 46.3497C43.8564 45.9611 43.5414 45.6465 43.1532 45.6465H37.2064C37.1386 45.6465 37.0789 45.6 37.0617 45.5334C37.0599 45.526 37.0577 45.5187 37.0559 45.5114L34.7605 37.698C34.0658 35.3484 34.5081 32.8753 35.9744 30.9125C37.4407 28.9499 39.6867 27.8242 42.1366 27.8242C42.8658 27.8242 43.5868 27.926 44.2801 28.1267C48.0268 29.2118 51.988 29.2118 55.7344 28.1267C56.4276 27.926 57.1487 27.8242 57.8778 27.8242C59.7627 27.8242 61.5714 28.5083 62.9714 29.7505C63.2618 30.0083 63.7064 29.9819 63.9642 29.6915C64.222 29.4007 64.1953 28.9565 63.9049 28.6987C62.2474 27.228 60.1069 26.418 57.8778 26.418C57.0165 26.418 56.1636 26.5385 55.3433 26.7758C51.8526 27.7869 48.1619 27.7869 44.6712 26.7758C43.8509 26.5385 42.998 26.418 42.1366 26.418C39.2388 26.418 36.582 27.7495 34.8476 30.0709C33.1132 32.3923 32.5899 35.3176 33.4117 38.0953L35.7038 45.8985C35.8858 46.5789 36.5021 47.0528 37.2064 47.0528H37.9106L38.3475 49.4529C38.4819 50.193 39.1257 50.7299 39.8775 50.7299H42.9416L43.4382 55.0072L42.9427 55.1398C42.43 55.2771 42.0015 55.606 41.7364 56.0656C41.4709 56.5251 41.4006 57.0605 41.5379 57.5729C41.7756 58.4595 42.5801 59.0454 43.4572 59.0454C43.604 59.0454 43.7531 59.0278 43.9018 58.9938L44.1545 61.1694L43.4843 61.3492C42.4263 61.6327 41.7961 62.724 42.0795 63.7823C42.3172 64.6685 43.1217 65.2549 43.9988 65.2549C44.1687 65.2549 44.3409 65.2329 44.5126 65.1867L44.6177 65.1585L44.8704 67.332L44.2965 67.4858C43.7839 67.6231 43.3558 67.952 43.0903 68.4116C42.8251 68.8712 42.7548 69.4062 42.8921 69.9189C43.0291 70.4312 43.358 70.8597 43.8175 71.1252C44.1237 71.3017 44.4632 71.3922 44.8074 71.3922C44.9799 71.3922 45.1538 71.3694 45.3249 71.3237L45.334 71.3211L45.5255 72.9694C45.6211 73.7952 46.3206 74.4181 47.1523 74.4181H52.8626C53.6939 74.4181 54.3933 73.7952 54.4893 72.9694L54.9811 68.7364L55.7183 68.5387C56.7759 68.2552 57.4061 67.1639 57.1227 66.1059C56.9081 65.3054 56.231 64.7506 55.4557 64.6502L55.7432 62.1776L56.5305 61.9667C57.5881 61.6836 58.2184 60.5919 57.9349 59.5339C57.7159 58.7165 57.0154 58.1551 56.22 58.0724L56.5052 55.6191L57.0718 55.4675C58.1301 55.1837 58.76 54.0924 58.4765 53.0344C58.277 52.2899 57.6775 51.7582 56.9711 51.6066L57.0732 50.7302H60.1369C60.8891 50.7302 61.5326 50.193 61.6673 49.4533L62.1042 47.0528H62.8081C63.5167 47.0528 64.136 46.573 64.3139 45.8864C64.3758 45.6476 65.7165 41.0971 66.6027 38.0968C67.2736 35.8274 67.0455 33.4261 65.9597 31.3354ZM53.0922 72.8068C53.0786 72.9236 52.9797 73.0115 52.8626 73.0115H47.1519C47.0347 73.0115 46.9358 72.9236 46.9223 72.8068L46.7069 70.9531L53.5199 69.1275L53.0922 72.8068ZM55.764 66.4696C55.8472 66.7786 55.663 67.0973 55.3539 67.1804L44.9609 69.965C44.8111 70.0053 44.6547 69.9844 44.5207 69.9072C44.3863 69.8295 44.2903 69.7047 44.2504 69.5549C44.2101 69.4051 44.2306 69.2487 44.3083 69.1147C44.3859 68.9803 44.5108 68.8844 44.6606 68.8441L55.0536 66.0594C55.1038 66.0459 55.1539 66.0396 55.2037 66.0396C55.4597 66.0393 55.6948 66.2107 55.764 66.4696ZM54.0128 64.8824L46.2433 66.9643L45.991 64.7905L54.2816 62.5691L54.0128 64.8824ZM56.5767 59.8976C56.6594 60.2067 56.4752 60.5256 56.1661 60.6084L44.1486 63.8285C43.8395 63.9116 43.5206 63.7274 43.4378 63.4183C43.355 63.1092 43.5392 62.7906 43.8483 62.7075L55.8658 59.4874C55.916 59.4739 55.9665 59.4676 56.016 59.4676C56.2723 59.4676 56.5074 59.6387 56.5767 59.8976ZM57.1183 53.3981C57.201 53.7072 57.0168 54.0261 56.7078 54.1089L52.4114 55.2603C52.0364 55.3606 51.8137 55.7462 51.9144 56.1212C52.0148 56.4962 52.4 56.7189 52.7754 56.6185L55.0437 56.0106L54.7749 58.324L45.5274 60.8017L45.2751 58.6283L49.8153 57.4117C50.1907 57.311 50.413 56.9254 50.3126 56.5504C50.2123 56.1754 49.8267 55.9528 49.4513 56.0531L43.607 57.6194C43.2979 57.7021 42.9793 57.5179 42.8962 57.2089C42.8562 57.0594 42.8768 56.9031 42.9544 56.7687C43.0317 56.6346 43.1569 56.5383 43.3067 56.4984L56.4075 52.9879C56.7165 52.9048 57.0355 53.0894 57.1183 53.3981ZM55.537 51.7652L44.8114 54.6392L44.3573 50.7299H55.6575L55.537 51.7652Z" fill="white"/>
<path d="M55.3433 30.5258C51.8526 31.5369 48.162 31.5369 44.6713 30.5258C44.2985 30.4182 43.9081 30.6328 43.8004 31.0059C43.6924 31.3787 43.907 31.7688 44.2801 31.8768C46.1533 32.4195 48.0803 32.6909 50.0073 32.6909C51.9343 32.6909 53.8613 32.4195 55.7345 31.8768C56.1076 31.7688 56.3226 31.3787 56.2146 31.0059C56.1065 30.6328 55.7161 30.4182 55.3433 30.5258Z" fill="white"/>
</g>
<defs>
<filter id="filter0_f_358_279" x="0" y="0.417969" width="100" height="100" filterUnits="userSpaceOnUse" color-interpolation-filters="sRGB">
<feFlood flood-opacity="0" result="BackgroundImageFix"/>
<feBlend mode="normal" in="SourceGraphic" in2="BackgroundImageFix" result="shape"/>
<feGaussianBlur stdDeviation="12.5" result="effect1_foregroundBlur_358_279"/>
</filter>
<clipPath id="clip0_358_279">
<rect width="48" height="48" fill="white" transform="translate(26 26.418)"/>
</clipPath>
</defs>
</svg>
