<svg width="100" height="100" viewBox="0 0 100 100" fill="none" xmlns="http://www.w3.org/2000/svg">
<circle cx="50" cy="50" r="35" fill="#98BCD6"/>
<g filter="url(#filter0_f_252_203)">
<circle cx="50" cy="50" r="25" fill="#98BCD6"/>
</g>
<g clip-path="url(#clip0_252_203)">
<path d="M33.9879 29.8651C33.9311 29.5294 33.6682 29.2665 33.3325 29.2097C32.029 28.9919 31.0077 27.9703 30.7903 26.6667C30.7166 26.2311 30.3037 25.9376 29.8682 26.0113C29.5325 26.0681 29.2696 26.331 29.2128 26.6667C28.9954 27.9703 27.9741 28.992 26.6706 29.2097C26.235 29.2834 25.9415 29.6963 26.0152 30.1318C26.072 30.4675 26.3349 30.7304 26.6706 30.7872C27.9741 31.005 28.9954 32.0266 29.2128 33.3302C29.2865 33.7658 29.6994 34.0593 30.1349 33.9856C30.4706 33.9288 30.7335 33.6659 30.7903 33.3302C31.0077 32.0266 32.029 31.005 33.3325 30.7872C33.7681 30.7136 34.0616 30.3007 33.9879 29.8651ZM30.0016 31.1408C29.6897 30.6969 29.3031 30.3103 28.8592 29.9984C29.3031 29.6866 29.6897 29.3 30.0016 28.8561C30.3134 29.3 30.7 29.6866 31.1439 29.9984C30.6999 30.3104 30.3134 30.6969 30.0016 31.1408Z" fill="white"/>
<path d="M57.7802 30.7978C56.2329 30.7977 54.7018 31.112 53.2797 31.7218C51.1843 32.6144 48.8155 32.6144 46.7201 31.7218C40.9238 29.2367 34.2103 31.921 31.7252 37.7174C31.1155 39.1395 30.8012 40.6705 30.8013 42.2178C30.7997 46.9288 32.1237 51.5452 34.6218 55.5393L34.8506 55.9065L38.3047 71.1054C38.759 73.107 40.75 74.3615 42.7516 73.9072C44.2241 73.573 45.348 72.3813 45.5954 70.8918L47.9953 56.4976C48.1809 55.39 49.2294 54.6428 50.337 54.8284C51.1924 54.9719 51.8628 55.6422 52.0062 56.4976L54.406 70.891C54.7438 72.9161 56.6591 74.2839 58.6842 73.9462C60.1724 73.698 61.3629 72.575 61.6975 71.1038L65.1508 55.9049L65.3796 55.5377C67.8769 51.5439 69.2003 46.9281 69.1985 42.2178C69.1989 35.9112 64.0867 30.7983 57.7802 30.7978ZM64.0213 54.6922L63.7205 55.1721C63.6733 55.2482 63.6388 55.3314 63.6181 55.4185L60.136 70.747C59.8767 71.8873 58.7421 72.6016 57.6018 72.3423C56.7638 72.1518 56.1242 71.4738 55.9827 70.6262L53.5829 56.2328C53.2525 54.2541 51.3805 52.9177 49.4017 53.2482C47.8715 53.5036 46.6724 54.7027 46.417 56.2328L44.0171 70.627C43.826 71.7802 42.7361 72.5603 41.5829 72.3691C40.734 72.2284 40.0547 71.5879 39.8646 70.7486L36.3817 55.4193C36.361 55.3322 36.3265 55.249 36.2793 55.1729L35.9785 54.693C33.6396 50.9524 32.4 46.6294 32.4012 42.2178C32.4074 36.7973 36.7999 32.4047 42.2205 32.3985C43.5506 32.3971 44.8669 32.6671 46.089 33.1921C48.5873 34.258 51.4125 34.258 53.9108 33.1921C58.896 31.056 64.6689 33.3656 66.8049 38.3507C67.3286 39.5727 67.5986 40.8883 67.5987 42.2178C67.5997 46.6292 66.3601 50.9518 64.0213 54.6922Z" fill="white"/>
<path d="M39.6004 36.3972L39.4405 35.6133C37.8406 35.9341 34.8008 37.6811 34.8008 41.9968H36.4007C36.4007 37.9403 39.6244 37.21 39.7604 37.1804L39.6004 36.3972Z" fill="white"/>
<path d="M42.8006 35.5977H41.2007V37.1975H42.8006V35.5977Z" fill="white"/>
<path d="M73.9849 63.4627C73.9281 63.127 73.6653 62.8642 73.3296 62.8074C72.0261 62.5896 71.0048 61.5679 70.7874 60.2643C70.7137 59.8288 70.3008 59.5353 69.8652 59.609C69.5296 59.6658 69.2667 59.9287 69.2099 60.2643C68.9925 61.5679 67.9712 62.5896 66.6677 62.8074C66.2321 62.8811 65.9386 63.2939 66.0123 63.7295C66.0691 64.0652 66.332 64.3281 66.6677 64.3848C67.9712 64.6026 68.9925 65.6243 69.2099 66.9279C69.2836 67.3634 69.6964 67.6569 70.132 67.5832C70.4677 67.5264 70.7306 67.2635 70.7874 66.9279C71.0048 65.6243 72.0261 64.6026 73.3296 64.3848C73.7652 64.3113 74.0586 63.8984 73.9849 63.4627ZM69.9986 64.7384C69.6867 64.2946 69.3002 63.908 68.8563 63.5961C69.3002 63.2842 69.6867 62.8977 69.9986 62.4538C70.3105 62.8977 70.6971 63.2842 71.1409 63.5961C70.697 63.9081 70.3105 64.2946 69.9986 64.7384Z" fill="white"/>
</g>
<defs>
<filter id="filter0_f_252_203" x="0" y="0" width="100" height="100" filterUnits="userSpaceOnUse" color-interpolation-filters="sRGB">
<feFlood flood-opacity="0" result="BackgroundImageFix"/>
<feBlend mode="normal" in="SourceGraphic" in2="BackgroundImageFix" result="shape"/>
<feGaussianBlur stdDeviation="12.5" result="effect1_foregroundBlur_252_203"/>
</filter>
<clipPath id="clip0_252_203">
<rect width="48" height="48" fill="white" transform="translate(26 26)"/>
</clipPath>
</defs>
</svg>
