<svg width="100" height="100" viewBox="0 0 100 100" fill="none" xmlns="http://www.w3.org/2000/svg">
<circle cx="50" cy="50" r="35" fill="#98BCD6"/>
<g filter="url(#filter0_f_252_204)">
<circle cx="50" cy="50" r="25" fill="#98BCD6"/>
</g>
<g clip-path="url(#clip0_252_204)">
<path d="M45.7963 40.1068C47.1133 41.4237 48.002 43.0857 48.368 44.9127C48.5225 45.6875 49.2095 46.25 50 46.25C50.7905 46.25 51.4775 45.6875 51.6327 44.9113L52.088 42.6327C52.1188 42.479 52.3812 42.4798 52.412 42.632L52.8673 44.912C53.0225 45.6875 53.7095 46.25 54.5 46.25C55.2905 46.25 55.9775 45.6875 56.1327 44.912C56.498 43.085 57.3875 41.4237 58.7045 40.106L59.0375 39.773C59.981 38.8303 60.5 37.5763 60.5 36.242C60.5 33.4895 58.2605 31.25 55.5072 31.25H54.9395L54.2803 31.9093C53.7455 32.4433 53.006 32.75 52.25 32.75C51.494 32.75 50.7545 32.4433 50.2197 31.9093L49.5605 31.25H48.9927C46.2395 31.25 44 33.4895 44 36.2427C44 37.577 44.519 38.831 45.4625 39.773L45.7963 40.1068ZM48.9395 32.75L49.1592 32.969C49.973 33.7835 51.0995 34.25 52.25 34.25C53.4005 34.25 54.527 33.7835 55.3407 32.9698L55.5605 32.75C57.4618 32.7793 59 34.3347 59 36.2427C59 37.1765 58.637 38.0533 57.977 38.7125L57.644 39.0455C56.117 40.5732 55.0857 42.4993 54.662 44.6165C54.6312 44.7703 54.3688 44.7695 54.338 44.6173L53.8827 42.3373C53.7275 41.5625 53.0405 41 52.25 41C51.4595 41 50.7725 41.5625 50.6173 42.3387L50.162 44.6173C50.1312 44.771 49.8688 44.771 49.838 44.6173C49.415 42.5 48.3838 40.5733 46.856 39.0463L46.523 38.7117C45.863 38.0525 45.5 37.1757 45.5 36.2427C45.5 34.3347 47.0383 32.7793 48.9395 32.75Z" fill="white"/>
<path d="M71.7702 54.914C71.3097 54.6432 70.784 54.5 70.2507 54.5C69.1932 54.5 68.2025 55.0662 67.664 55.979L66.3088 58.283C65.9442 56.8355 65.075 55.589 63.824 54.7557C63.6485 54.6388 63.4625 54.5435 63.2772 54.4468C64.7593 53.5183 65.75 51.875 65.75 50C65.75 47.339 63.758 45.1392 61.1878 44.8002C62.6818 42.8533 63.5 40.499 63.5 38C63.5 31.7968 58.4533 26.75 52.25 26.75C46.0467 26.75 41 31.7968 41 38C41 38.5798 41.0495 39.1588 41.1395 39.7333C40.6175 39.5848 40.0693 39.5 39.5 39.5C36.1918 39.5 33.5 42.1918 33.5 45.5C33.5 47.6248 34.613 49.49 36.2833 50.5565C32.4853 51.89 29.75 55.502 29.75 59.75V65.75C29.75 66.299 29.909 66.8068 30.167 67.25H29.75C28.0955 67.25 26.75 68.5955 26.75 70.25C26.75 71.9045 28.0955 73.25 29.75 73.25H58.8898C62.33 73.25 65.5497 71.408 67.2943 68.4432L72.8375 59.0188C73.6738 57.5923 73.1953 55.7502 71.7702 54.914ZM64.9108 58.868C65.0218 59.4207 65.0292 59.9795 64.9287 60.5585L64.9167 60.6493L62.1215 65.4012C61.4517 66.542 60.212 67.25 58.8898 67.25H52.25C51.6297 67.25 51.125 66.7453 51.125 66.125C51.125 65.5047 51.6297 65 52.25 65H57.9387C58.8552 65 59.717 64.5117 60.1895 63.7257L61.8927 60.8862L60.6065 60.1145L58.9032 62.954C58.7015 63.2907 58.331 63.5 57.9387 63.5H52.5905L56.7545 57.2533C57.5877 55.9993 58.9873 55.25 60.4977 55.25C61.388 55.25 62.2505 55.511 62.9923 56.0052C63.9928 56.6712 64.6745 57.6875 64.9108 58.868ZM45.3395 46.8582C47.3083 48.4025 49.709 49.25 52.25 49.25C53.3255 49.25 54.377 49.0798 55.4 48.7775C55.3055 49.1705 55.25 49.5785 55.25 50C55.25 51.8682 56.234 53.5077 57.7085 54.4385C56.8333 54.8982 56.0712 55.5718 55.5057 56.4222L51.2878 62.75H50.9773L49.25 61.5988V59.75C49.25 55.502 46.5147 51.89 42.7167 50.5565C44.0195 49.7248 44.9788 48.407 45.3395 46.8582ZM48.2728 62.75H35.7492L38.063 61.0153C39.1512 60.1992 40.499 59.75 41.8588 59.75C43.1112 59.75 44.324 60.1175 45.3665 60.812L48.2728 62.75ZM64.25 50C64.25 52.0677 62.5677 53.75 60.5 53.75C58.4323 53.75 56.75 52.0677 56.75 50C56.75 47.9323 58.4323 46.25 60.5 46.25C62.5677 46.25 64.25 47.9323 64.25 50ZM42.5 38C42.5 32.624 46.874 28.25 52.25 28.25C57.626 28.25 62 32.624 62 38C62 40.6423 60.9523 43.103 59.0578 44.9562C57.95 45.2735 56.9938 45.9463 56.3158 46.8425C55.0228 47.4403 53.657 47.75 52.25 47.75C49.697 47.75 47.3053 46.7668 45.4745 44.9907C45.317 43.13 44.3105 41.5077 42.8405 40.5185C42.6185 39.692 42.5 38.8468 42.5 38ZM35 45.5C35 43.0182 37.0182 41 39.5 41C41.9818 41 44 43.0182 44 45.5C44 47.9818 41.9818 50 39.5 50C37.0182 50 35 47.9818 35 45.5ZM39.5 51.5C44.0487 51.5 47.75 55.2013 47.75 59.75V60.599L46.1982 59.564C44.909 58.7045 43.4083 58.25 41.8588 58.25C40.1772 58.25 38.5093 58.8057 37.1637 59.8145L33.2502 62.75H32.75C32.201 62.75 31.6933 62.909 31.25 63.167V59.75C31.25 55.2013 34.9513 51.5 39.5 51.5ZM31.25 65.75C31.25 64.9227 31.9227 64.25 32.75 64.25H50.4185C49.9302 64.727 49.625 65.39 49.625 66.125C49.625 66.5293 49.7248 66.908 49.8883 67.25H32.7463C31.9212 67.2477 31.25 66.5757 31.25 65.75ZM71.5437 58.259L66.0005 67.6828C64.5245 70.1915 61.7998 71.75 58.8898 71.75H29.75C28.9227 71.75 28.25 71.0773 28.25 70.25C28.25 69.4227 28.9227 68.75 29.75 68.75H32.7463H32.75H49.25H52.25H58.8898H58.9647V68.7448C60.7887 68.7185 62.489 67.736 63.416 66.1618L68.9577 56.7402C69.3613 56.0532 70.3205 55.8027 71.012 56.2078C71.723 56.6255 71.9615 57.5465 71.5437 58.259Z" fill="white"/>
</g>
<defs>
<filter id="filter0_f_252_204" x="0" y="0" width="100" height="100" filterUnits="userSpaceOnUse" color-interpolation-filters="sRGB">
<feFlood flood-opacity="0" result="BackgroundImageFix"/>
<feBlend mode="normal" in="SourceGraphic" in2="BackgroundImageFix" result="shape"/>
<feGaussianBlur stdDeviation="12.5" result="effect1_foregroundBlur_252_204"/>
</filter>
<clipPath id="clip0_252_204">
<rect width="48" height="48" fill="white" transform="translate(26 26)"/>
</clipPath>
</defs>
</svg>
