<svg width="100" height="100" viewBox="0 0 100 100" fill="none" xmlns="http://www.w3.org/2000/svg">
<circle cx="50" cy="50" r="35" fill="#98BCD6"/>
<g filter="url(#filter0_f_252_205)">
<circle cx="50" cy="50" r="25" fill="#98BCD6"/>
</g>
<g clip-path="url(#clip0_252_205)">
<path d="M32.1922 55.4529L32.1922 55.4602L32.1943 55.4673C34.7314 63.8658 40.0361 69.8325 48.7749 73.5734C48.8191 73.5923 48.8827 73.621 48.9587 73.6553C48.9818 73.6657 49.006 73.6767 49.0312 73.688C49.1389 73.7365 49.2633 73.792 49.387 73.8444C49.5105 73.8967 49.6342 73.9463 49.7404 73.9829C49.8443 74.0186 49.9387 74.0446 50.0004 74.0446C50.0618 74.0446 50.1562 74.0186 50.2599 73.9829C50.366 73.9464 50.4897 73.8969 50.6132 73.8446C50.7369 73.7922 50.8612 73.7368 50.9689 73.6884C50.9944 73.6769 51.019 73.6658 51.0423 73.6553C51.1179 73.6212 51.1811 73.5927 51.2249 73.574C59.9587 69.8362 65.2733 63.863 67.8056 55.4676L67.8077 55.4605L67.8077 55.4532L67.8319 35.3837V35.3836C67.8319 35.2528 67.8018 35.144 67.7399 35.0554C67.6782 34.967 67.5879 34.9032 67.4751 34.8569C67.2521 34.7653 66.9293 34.7375 66.5275 34.7296C66.3232 34.7256 66.0969 34.7267 65.85 34.728C65.1192 34.7317 64.2078 34.7363 63.1504 34.6107C60.3264 34.2752 56.4684 33.0103 52.3414 28.3022C52.0043 27.9177 51.7217 27.5812 51.4797 27.2925L51.4481 27.2548C51.2203 26.983 51.0285 26.7542 50.8615 26.5693C50.6872 26.3763 50.5378 26.2287 50.4005 26.1293C50.2629 26.0296 50.1335 25.9754 49.9998 25.9754C49.8662 25.9754 49.7368 26.0296 49.5991 26.1293C49.4619 26.2287 49.3125 26.3763 49.1382 26.5693C48.9713 26.7542 48.7795 26.983 48.5517 27.2548L48.5201 27.2925C48.2782 27.5812 47.9955 27.9177 47.6585 28.3022L47.6961 28.3352L47.6585 28.3022C43.5313 33.0105 39.6734 34.2754 36.8495 34.6108C35.7922 34.7364 34.8808 34.7317 34.15 34.728C33.9031 34.7267 33.6769 34.7256 33.4725 34.7296C33.0708 34.7375 32.7481 34.7653 32.5251 34.8569C32.4123 34.9032 32.322 34.967 32.2602 35.0554C32.1983 35.144 32.1683 35.2528 32.1683 35.3836L32.1683 35.3837L32.1922 55.4529ZM33.3927 55.1993V35.9823L35.2397 35.9412C40.3554 35.8284 44.5948 33.6548 48.58 29.1095L48.5424 29.0765L48.58 29.1095L50.0001 27.4894L51.4202 29.1095L51.4578 29.0765L51.4202 29.1095C55.4053 33.6545 59.6448 35.8284 64.7599 35.9412L66.6069 35.9823V55.1996L66.5263 55.4668C64.1426 63.368 58.9819 68.9217 50.7432 72.4479L50.0004 72.766L49.2567 72.4476C40.8052 68.8295 35.8405 63.2876 33.3927 55.1993Z" fill="white" stroke="white" stroke-width="0.1"/>
<path d="M34.6939 55.0831L34.6939 55.0905L34.696 55.0975C36.9642 62.6157 41.8941 67.9075 49.7596 71.2743C49.8362 71.307 49.9183 71.3236 50.0004 71.3236H50.0007C50.0827 71.3236 50.1648 71.3071 50.241 71.2742C58.1065 67.908 63.036 62.616 65.3044 55.0978L65.3066 55.0908L65.3066 55.0834L65.3308 37.8298V37.8297C65.3308 37.4971 65.0643 37.2251 64.7317 37.2178C59.2365 37.0961 54.7023 34.7895 50.4604 29.9507C50.227 29.6841 49.7726 29.6841 49.5392 29.9507C45.2973 34.7892 40.7637 37.0958 35.2685 37.2175C34.9356 37.2249 34.6697 37.4965 34.6697 37.8294L34.6697 37.8295L34.6939 55.0831ZM64.1058 54.8295C61.9607 61.8561 57.347 66.835 50.0004 70.0434C42.6541 66.835 38.0401 61.8564 35.8947 54.8295V38.4195C41.2263 38.1465 45.8531 35.8001 50.0004 31.2714C54.1477 35.7998 58.7739 38.1462 64.1058 38.4195V54.8295Z" fill="white" stroke="white" stroke-width="0.1"/>
<path d="M46.382 60.9908L46.3821 60.9909C46.4796 61.0675 46.5945 61.1108 46.7114 61.1205V61.1228H46.7614C46.9453 61.1228 47.1403 61.0329 47.2606 60.8747C47.3826 60.7144 47.425 60.4882 47.3101 60.2245C46.6568 58.2977 47.0954 56.7453 47.8172 55.5945C48.5269 54.4629 49.5107 53.7194 50.0013 53.3945C50.4969 53.7204 51.4919 54.4688 52.2025 55.6124C52.9252 56.7756 53.3543 58.3482 52.6622 60.3066L52.6622 60.3066C52.4602 60.8793 53.1409 61.3685 53.6189 60.9914C57.8854 57.6278 57.916 53.2286 57.3714 49.6867C58.7641 48.6708 59.5839 47.0703 59.5839 45.3283C59.5839 40.5182 53.9281 38.3875 50.6665 41.215C50.3108 41.5233 50.0643 41.5895 49.8411 41.5357C49.7267 41.5081 49.6139 41.448 49.4914 41.3636C49.3881 41.2923 49.2805 41.2057 49.1609 41.1092C49.1385 41.0912 49.1156 41.0727 49.0923 41.054C48.7978 40.8177 48.4355 40.5395 47.925 40.3209C47.4143 40.1022 46.7575 39.9441 45.8738 39.9441C40.5448 39.9441 38.4467 46.6391 42.6295 49.6861C42.0849 53.2281 42.1158 57.6269 46.382 60.9908ZM56.382 48.8774L56.382 48.8774C56.1707 49.0085 56.0595 49.2538 56.1008 49.4988C56.7926 53.6291 56.2277 56.5002 54.2249 58.7544C54.3391 56.7589 53.4427 55.1026 52.4459 53.9395C51.9352 53.3437 51.3973 52.8761 50.9528 52.5572C50.7306 52.3977 50.5311 52.275 50.3696 52.1919C50.2889 52.1503 50.217 52.1183 50.1559 52.0966C50.096 52.0753 50.0427 52.0624 50.0006 52.0624H50.0003C49.9582 52.0624 49.9048 52.0753 49.8448 52.0966C49.7837 52.1183 49.7117 52.1503 49.631 52.1919C49.4694 52.2751 49.2699 52.3978 49.0476 52.5573C48.6031 52.8764 48.0652 53.344 47.5546 53.9399C46.5579 55.103 45.6618 56.7592 45.7759 58.7538C43.7729 56.4994 43.2083 53.6285 43.9001 49.4983C43.9411 49.2532 43.8299 49.0079 43.6189 48.8769L43.6189 48.8769C42.3809 48.1089 41.642 46.7825 41.642 45.3281C41.642 43.4132 42.7532 42.0877 44.1706 41.5044C45.5897 40.9204 47.3122 41.0819 48.5315 42.1402C49.0958 42.6299 49.5519 42.8195 49.9668 42.8183C50.3805 42.8172 50.7424 42.6262 51.1164 42.3812C51.219 42.3139 51.3229 42.2424 51.4295 42.169C52.1023 41.7059 52.8814 41.1694 54.1271 41.1694C58.5063 41.1694 59.8826 46.7069 56.382 48.8774Z" fill="white" stroke="white" stroke-width="0.1"/>
<path d="M47.5311 43.7532L47.5311 43.7532C47.6488 43.6174 47.7667 43.5452 47.8898 43.5269C48.0124 43.5087 48.1309 43.5454 48.247 43.6083C48.3627 43.6709 48.4814 43.7624 48.6049 43.8606C48.6204 43.8729 48.636 43.8853 48.6517 43.8978C48.7623 43.986 48.8782 44.0784 49.0041 44.1638C49.2906 44.3581 49.623 44.5121 50.0393 44.4845C50.4563 44.4568 50.9663 44.2462 51.6055 43.6919L51.6055 43.6919C51.7558 43.5616 51.9211 43.519 52.075 43.54C52.2275 43.5609 52.3652 43.6438 52.4641 43.7579C52.5631 43.8721 52.6256 44.02 52.6246 44.174C52.6236 44.3293 52.5579 44.4868 52.4076 44.6172L52.4076 44.6172C51.5873 45.3281 50.795 45.7326 50.0005 45.7327L47.5311 43.7532ZM47.5311 43.7532C47.4321 43.8674 47.3826 43.9877 47.3772 44.111C47.3719 44.2335 47.4106 44.354 47.4791 44.4689C47.6153 44.6972 47.8748 44.9128 48.1769 45.0978C48.4802 45.2836 48.8318 45.442 49.1586 45.554C49.4842 45.6655 49.7897 45.7327 50.0003 45.7327L47.5311 43.7532Z" fill="white" stroke="white" stroke-width="0.1"/>
</g>
<defs>
<filter id="filter0_f_252_205" x="0" y="0" width="100" height="100" filterUnits="userSpaceOnUse" color-interpolation-filters="sRGB">
<feFlood flood-opacity="0" result="BackgroundImageFix"/>
<feBlend mode="normal" in="SourceGraphic" in2="BackgroundImageFix" result="shape"/>
<feGaussianBlur stdDeviation="12.5" result="effect1_foregroundBlur_252_205"/>
</filter>
<clipPath id="clip0_252_205">
<rect width="48" height="48" fill="white" transform="translate(26 26)"/>
</clipPath>
</defs>
</svg>
