<svg width="100" height="101" viewBox="0 0 100 101" fill="none" xmlns="http://www.w3.org/2000/svg">
<g filter="url(#filter0_f_358_280)">
<circle cx="50" cy="50.418" r="25" fill="#98BCD6"/>
</g>
<circle cx="50" cy="50.418" r="35" fill="#98BCD6"/>
<g clip-path="url(#clip0_358_280)">
<path d="M67.2971 30.6687C66.1421 29.6367 64.8243 28.7967 63.3873 28.2162C61.9151 27.6215 60.3416 27.305 58.7576 27.2285C58.4756 27.215 58.1928 27.209 57.9108 27.209C56.4326 27.2127 54.9146 27.5967 53.5188 28.3205C51.3168 29.4627 48.6896 29.462 46.4883 28.3205C45.0926 27.5967 43.5738 27.2127 42.0963 27.209C40.5056 27.209 38.9156 27.4265 37.4028 27.929C35.9328 28.4172 34.5573 29.168 33.3453 30.1317C33.1293 30.3035 32.9171 30.4827 32.7108 30.668C29.6501 33.4107 28.0166 37.5102 28.2288 41.918C28.4336 45.9072 29.7513 51.2405 34.7336 54.3987C34.7051 55.508 34.6826 56.6495 34.7606 57.8037C34.8138 58.5057 34.8746 59.3015 34.9991 60.092C35.6741 64.4585 37.0061 69.3402 41.7656 72.4385C42.9078 73.1817 44.7551 74.2587 46.0038 73.0872C46.8753 72.269 47.0936 70.7937 47.1551 69.6575C47.1573 69.6042 47.4461 64.7142 50.0381 59.8812C51.0851 61.6085 52.7231 65.0435 53.3028 70.307C53.4656 71.7845 54.1023 73.6272 55.8933 73.6272C56.8256 73.6272 57.6701 73.1112 58.0061 72.9065C60.8246 71.1867 62.7911 68.8482 64.0181 65.759C65.4828 62.0855 65.6268 58.5125 65.3381 54.3642C70.2903 51.188 71.5826 45.881 71.7686 41.9097C71.9921 37.5035 70.3616 33.4062 67.2971 30.6687ZM55.7433 49.97C54.4653 49.0707 52.6856 48.0687 50.6433 47.3225C50.1963 47.159 49.7966 47.045 49.3578 47.3225C47.3208 48.0665 45.5448 49.0647 44.2683 49.9625C44.0463 47.033 43.1883 44.0772 42.3918 41.9322L47.7138 43.3137C49.3653 43.7435 51.1091 43.733 52.7546 43.2837L57.5906 41.924C56.8128 44.0922 55.9623 47.0457 55.7433 49.97ZM50.7926 57.0522C50.5578 56.792 50.2188 56.6562 49.8671 56.684C49.5183 56.7117 49.2018 56.9007 49.0121 57.1955C45.2966 62.9495 44.9238 69.272 44.9103 69.5367C44.9096 69.545 44.9081 69.5525 44.9081 69.5607C41.9666 62.498 43.7958 54.4505 44.1843 52.937C44.6118 52.4217 46.9196 50.636 50.0006 49.4832C53.1281 50.6532 55.4613 52.478 55.8371 52.961C56.2833 54.4302 58.5266 62.639 55.5033 69.779C54.4961 61.2597 50.9456 57.2202 50.7926 57.0522ZM42.8298 70.4367C38.9478 67.811 37.8123 63.5675 37.2213 59.7432C37.1103 59.0397 37.0533 58.2912 37.0038 57.6402C36.9273 56.519 36.9566 55.4022 36.9873 54.218C37.0038 53.5475 36.9288 53.0937 36.3123 52.7352C31.8206 50.126 30.6566 45.353 30.4743 41.8032C30.2951 38.0787 31.6563 34.6295 34.2108 32.3405C35.7506 30.9605 37.6391 30.0395 39.6723 29.666C41.6463 29.3037 43.6428 29.3772 45.4511 30.3147C48.3003 31.7922 51.7031 31.793 54.5531 30.3147C55.6316 29.7552 56.7941 29.4582 57.9153 29.456C59.4911 29.456 61.0653 29.7095 62.5308 30.299C63.7293 30.7812 64.8341 31.4795 65.7956 32.342C68.3508 34.625 69.7098 38.0697 69.5223 41.7965C69.3558 45.3695 68.1963 50.1725 63.6236 52.7862C63.2868 52.979 63.0146 53.4477 63.0521 53.8595C63.3798 57.9912 63.3138 61.4532 61.9293 64.925C61.0158 67.2252 59.6201 69.0327 57.6791 70.4255C59.8826 65.0532 59.7333 58.8005 58.2603 53.252C57.3513 49.829 58.5423 45.9357 59.7071 42.683C59.9868 41.9022 59.8106 41.0397 59.2473 40.4292C58.6781 39.8157 57.8231 39.5705 57.0198 39.7895L52.1613 41.1117C50.8931 41.4567 49.5506 41.465 48.2771 41.135L42.9551 39.7535C42.1518 39.5442 41.3043 39.7962 40.7441 40.4097C40.1876 41.0195 40.0151 41.879 40.2933 42.6537C41.4048 45.7505 42.6048 49.2162 41.9508 52.544C41.5121 54.7745 41.1086 56.9607 41.0171 59.243C40.9443 61.061 41.0186 62.8872 41.2758 64.6887C41.4843 66.1467 41.8173 67.6032 42.2876 68.9997C42.2876 68.9997 42.6206 70.1787 42.8298 70.4367Z" fill="white" stroke="#98BCD6" stroke-width="0.7"/>
</g>
<defs>
<filter id="filter0_f_358_280" x="0" y="0.417969" width="100" height="100" filterUnits="userSpaceOnUse" color-interpolation-filters="sRGB">
<feFlood flood-opacity="0" result="BackgroundImageFix"/>
<feBlend mode="normal" in="SourceGraphic" in2="BackgroundImageFix" result="shape"/>
<feGaussianBlur stdDeviation="12.5" result="effect1_foregroundBlur_358_280"/>
</filter>
<clipPath id="clip0_358_280">
<rect width="48" height="48" fill="white" transform="translate(26 26.418)"/>
</clipPath>
</defs>
</svg>
