<svg width="24" height="25" viewBox="0 0 24 25" fill="none" xmlns="http://www.w3.org/2000/svg">
<path fill-rule="evenodd" clip-rule="evenodd" d="M14.3558 2.17491C14.1328 2.14298 13.9087 2.20884 13.7304 2.35053C13.5472 2.49421 13.4326 2.70176 13.4077 2.93425C13.355 3.40423 13.6946 3.8293 14.1646 3.88218C17.4063 4.24339 19.9259 6.76488 20.2904 10.0118C20.3392 10.4468 20.7047 10.7751 21.1409 10.7751C21.1738 10.7751 21.2057 10.7731 21.2385 10.7691C21.4666 10.7442 21.6697 10.6314 21.8132 10.4518C21.9556 10.2722 22.0203 10.0487 21.9944 9.82021C21.5403 5.76906 18.4002 2.62493 14.3558 2.17491ZM14.4181 5.65172C13.9421 5.56391 13.5048 5.86725 13.4142 6.33123C13.3236 6.79522 13.6283 7.24823 14.0914 7.33903C15.4857 7.61044 16.5623 8.68808 16.8351 10.085V10.086C16.9128 10.4882 17.2674 10.7805 17.6757 10.7805C17.7305 10.7805 17.7852 10.7755 17.841 10.7655C18.3041 10.6727 18.6088 10.2207 18.5182 9.75575C18.1109 7.66931 16.5025 6.05783 14.4181 5.65172ZM16.0001 15.238C16.4515 14.978 16.9615 14.6845 17.6047 14.8211C18.1873 14.9438 20.1731 16.5533 20.7169 17.1111C21.0734 17.4763 21.2716 17.8535 21.3025 18.2306C21.3562 19.7104 19.3425 21.3997 18.976 21.6103C18.489 21.9605 17.9224 22.1371 17.286 22.1371C16.6357 22.1371 15.9106 21.9525 15.1199 21.5843C10.8296 19.7962 4.27553 13.3812 2.54266 9.13052C1.82362 7.54797 1.81864 6.24283 2.53071 5.26197C2.81454 4.80197 4.43288 2.87917 5.88192 2.94004C6.26733 2.97297 6.64179 3.17054 7.00928 3.52975C7.56499 4.07356 9.13653 6.06222 9.25803 6.64594C9.39247 7.29453 9.09769 7.8104 8.83576 8.26341C8.7799 8.36079 8.70463 8.47636 8.62217 8.60297C8.3092 9.08348 7.89264 9.72304 8.04004 10.1313C9.09669 12.7217 11.5376 14.9817 14.133 16.0434C14.5343 16.1891 15.1745 15.7702 15.6542 15.4563C15.7791 15.3745 15.8932 15.2998 15.9893 15.2442L16.0001 15.238Z" fill="#98BCD6"/>
</svg>
