<svg width="24" height="25" viewBox="0 0 24 25" fill="none" xmlns="http://www.w3.org/2000/svg">
<g id="Iconly/Light-Outline/Call">
<path id="Stroke 5" fill-rule="evenodd" clip-rule="evenodd" d="M3.28872 4.24703L3.36127 4.17122C5.28869 2.24362 6.54385 1.73269 7.88307 2.5028C8.2683 2.72433 8.62945 3.03441 9.12054 3.53319L10.6269 5.09521C11.4589 6.00311 11.6481 6.87396 11.3772 7.89383L11.3398 8.02885L11.2984 8.1631L11.097 8.75392C10.666 10.0789 10.846 10.8265 12.3795 12.3596C13.9742 13.9539 14.7186 14.0843 16.1457 13.5856L16.4001 13.4971L16.7077 13.3973L16.8423 13.3599C17.9263 13.0707 18.842 13.3015 19.8132 14.272L21.0269 15.4444L21.3842 15.7958C21.7803 16.1997 22.0421 16.5198 22.2355 16.8581C23.0008 18.1969 22.4893 19.4513 20.5063 21.4269L20.3177 21.6181C20.0216 21.9034 19.745 22.1078 19.3386 22.3008C18.6565 22.6246 17.8506 22.7467 16.9142 22.6165C14.6067 22.2956 11.6802 20.475 7.97188 16.7676C7.67002 16.4658 7.3809 16.1699 7.10425 15.8797L6.56748 15.3068C1.53762 9.84203 1.09389 6.48506 3.15518 4.37968L3.28872 4.24703ZM7.90639 4.44069C7.58059 4.1195 7.34393 3.9237 7.13529 3.80372C6.67376 3.53832 6.17547 3.65051 5.25327 4.44424L4.9635 4.70311C4.91296 4.74976 4.86126 4.79819 4.80835 4.84845L4.47608 5.17207L4.44614 5.20948L4.22088 5.43579C3.67653 5.9918 3.41868 6.6704 3.64088 7.83743C4.00548 9.75245 5.67439 12.3503 9.03238 15.7074C12.5313 19.2054 15.1971 20.8639 17.1208 21.1314C18.2422 21.2874 18.8142 21.0158 19.3975 20.4182L19.8424 19.9692C20.051 19.7509 20.2292 19.5531 20.3797 19.3723L20.585 19.1137C21.1097 18.4148 21.1576 17.9956 20.9332 17.603C20.8478 17.4537 20.7236 17.2899 20.5429 17.0898L20.2976 16.8308L20.1525 16.6856L18.6212 15.207C18.1095 14.7351 17.7599 14.6681 17.2289 14.8098L17.0757 14.8539L16.4414 15.0692C14.6013 15.6635 13.2738 15.3753 11.3189 13.4209C9.29427 11.3968 9.05682 10.0451 9.73519 8.09894L9.77871 7.97387L9.89905 7.6113L9.95821 7.38019C10.0631 6.87722 9.94334 6.52654 9.40266 5.98577C9.3804 5.96351 9.35552 5.93842 9.32845 5.91096L7.90639 4.44069Z" fill="#CFCFCF"/>
</g>
</svg>
